<svg width="264" height="258" viewBox="0 0 264 258" fill="none" xmlns="http://www.w3.org/2000/svg">
<rect width="264" height="258" fill="white"/>
<path d="M242 119.109V128.999C241.986 152.181 234.305 174.737 220.103 193.304C205.9 211.871 185.936 225.453 163.189 232.026C140.442 238.599 116.13 237.809 93.8791 229.776C71.6284 221.742 52.6311 206.895 39.7205 187.448C26.8099 168 20.6776 144.996 22.2384 121.864C23.7991 98.7331 32.9692 76.7145 48.381 59.0926C63.7928 41.4706 84.6206 29.1894 107.758 24.0806C130.895 18.9718 155.103 21.3092 176.77 30.744M242 42.999L132 150.607L99 118.357" stroke="#34C759" stroke-width="8" stroke-linecap="round" stroke-linejoin="round"/>
</svg>
